<svg width="64" height="64" viewBox="0 0 64 64" fill="none" xmlns="http://www.w3.org/2000/svg">
<rect width="64" height="64" rx="22" fill="#303030"/>
<path d="M32.0529 47.48C29.4289 47.48 27.0129 47.048 24.8049 46.184C22.5969 45.32 20.6769 44.12 19.0449 42.584C17.4129 41.016 16.1489 39.192 15.2529 37.112C14.3569 35 13.9089 32.696 13.9089 30.2C13.9089 27.704 14.3569 25.416 15.2529 23.336C16.1489 21.224 17.4129 19.4 19.0449 17.864C20.6769 16.296 22.5969 15.08 24.8049 14.216C27.0129 13.352 29.4129 12.92 32.0049 12.92C34.6289 12.92 37.0289 13.352 39.2049 14.216C41.4129 15.08 43.3329 16.28 44.9649 17.816C46.5969 19.352 47.8609 21.176 48.7569 23.288C49.6529 25.4 50.1009 27.704 50.1009 30.2C50.1009 32.696 49.6529 35 48.7569 37.112C47.8609 39.224 46.5969 41.048 44.9649 42.584C43.3329 44.12 41.4129 45.32 39.2049 46.184C37.0289 47.048 34.6449 47.48 32.0529 47.48ZM42.9969 54.344C41.8129 54.344 40.6609 54.2 39.5409 53.912C38.4529 53.656 37.3649 53.208 36.2769 52.568C35.2209 51.96 34.1169 51.144 32.9649 50.12C31.8129 49.128 30.5489 47.896 29.1729 46.424L35.7969 44.696C36.6929 45.88 37.5409 46.824 38.3409 47.528C39.1729 48.264 39.9729 48.792 40.7409 49.112C41.5089 49.432 42.3089 49.592 43.1409 49.592C45.3489 49.592 47.2689 48.696 48.9009 46.904L51.7809 50.36C49.5409 53.016 46.6129 54.344 42.9969 54.344ZM32.0049 42.008C33.7009 42.008 35.2689 41.72 36.7089 41.144C38.1489 40.568 39.3969 39.752 40.4529 38.696C41.5089 37.608 42.3249 36.344 42.9009 34.904C43.5089 33.464 43.8129 31.896 43.8129 30.2C43.8129 28.472 43.5089 26.904 42.9009 25.496C42.3249 24.056 41.5089 22.808 40.4529 21.752C39.3969 20.664 38.1489 19.832 36.7089 19.256C35.2689 18.68 33.7009 18.392 32.0049 18.392C30.3089 18.392 28.7409 18.68 27.3009 19.256C25.8609 19.832 24.6129 20.664 23.5569 21.752C22.5009 22.808 21.6689 24.056 21.0609 25.496C20.4849 26.904 20.1969 28.472 20.1969 30.2C20.1969 31.896 20.4849 33.464 21.0609 34.904C21.6689 36.344 22.5009 37.608 23.5569 38.696C24.6129 39.752 25.8609 40.568 27.3009 41.144C28.7409 41.72 30.3089 42.008 32.0049 42.008Z" fill="#F12354"/>
</svg>
