<svg width="200" height="200" viewBox="0 0 200 200" fill="none" xmlns="http://www.w3.org/2000/svg">
<rect width="200" height="200" fill="#E7E7E7" fill-opacity="0.5"/>
<path d="M99.4993 145.917C104.516 145.917 108.583 141.85 108.583 136.833C108.583 131.817 104.516 127.75 99.4993 127.75C94.4828 127.75 90.416 131.817 90.416 136.833C90.416 141.85 94.4828 145.917 99.4993 145.917Z" fill="#474747"/>
<path d="M99.4993 73.2502C104.516 73.2502 108.583 69.1834 108.583 64.1668C108.583 59.1502 104.516 55.0835 99.4993 55.0835C94.4828 55.0835 90.416 59.1502 90.416 64.1668C90.416 69.1834 94.4828 73.2502 99.4993 73.2502Z" fill="#474747"/>
<path d="M73.8079 135.276C78.8245 135.276 82.8913 131.209 82.8913 126.192C82.8913 121.176 78.8245 117.109 73.8079 117.109C68.7914 117.109 64.7246 121.176 64.7246 126.192C64.7246 131.209 68.7914 135.276 73.8079 135.276Z" fill="#474747"/>
<path d="M125.193 83.8913C130.209 83.8913 134.276 79.8245 134.276 74.8079C134.276 69.7914 130.209 65.7246 125.193 65.7246C120.176 65.7246 116.109 69.7914 116.109 74.8079C116.109 79.8245 120.176 83.8913 125.193 83.8913Z" fill="#474747"/>
<path d="M63.166 109.588C68.1851 109.588 72.2539 105.519 72.2539 100.5C72.2539 95.4809 68.1851 91.4121 63.166 91.4121C58.1469 91.4121 54.0781 95.4809 54.0781 100.5C54.0781 105.519 58.1469 109.588 63.166 109.588Z" fill="#474747"/>
<path d="M135.833 109.583C140.85 109.583 144.917 105.516 144.917 100.5C144.917 95.4833 140.85 91.4165 135.833 91.4165C130.817 91.4165 126.75 95.4833 126.75 100.5C126.75 105.516 130.817 109.583 135.833 109.583Z" fill="#474747"/>
<path d="M73.8079 83.8957C78.8245 83.8957 82.8913 79.8289 82.8913 74.8123C82.8913 69.7958 78.8245 65.729 73.8079 65.729C68.7914 65.729 64.7246 69.7958 64.7246 74.8123C64.7246 79.8289 68.7914 83.8957 73.8079 83.8957Z" fill="#474747"/>
<path d="M125.193 135.28C130.209 135.28 134.276 131.213 134.276 126.197C134.276 121.18 130.209 117.113 125.193 117.113C120.176 117.113 116.109 121.18 116.109 126.197C116.109 131.213 120.176 135.28 125.193 135.28Z" fill="#474747"/>
</svg>
